PathFileType	4	(X/Y/Z)
DataRate	CameraRate	NumFrames	NumMarkers	Units	OrigDataRate	OrigDataStartFrame	OrigNumFrames	
  120.0	  120.0	    4	     56	     mm	  120.0	      407	    465
Frame#	Time	LASI			RASI			LPSI			RPSI			RTH1			RTH2			RTH3			RLFC			RMFC			LTH1			LTH2			LTH3			LLFC			LMFC			RTB1			RTB2			RTB3			RLMAL			RMMAL			LTB1			LTB2			LTB3			LMMAL			LLMAL			RCAL			RTOE			RMT5			LCAL			LTOE			LMT5			LACR			RACR			CLAV			C7			LASH			LPSH			RASH			RPSH			RUA1			RUA2			RUA3			RLEL			RMEL			LUA1			LUA2			LUA3			LLEL			LMEL			RFAsuperior			RFAradius			RFAulna			LFAsuperior			LFAradius			LFAulna			RHJC			LHJC			
		X1	Y1	Z1	X2	Y2	Z2	X3	Y3	Z3	X4	Y4	Z4	X5	Y5	Z5	X6	Y6	Z6	X7	Y7	Z7	X8	Y8	Z8	X9	Y9	Z9	X10	Y10	Z10	X11	Y11	Z11	X12	Y12	Z12	X13	Y13	Z13	X14	Y14	Z14	X15	Y15	Z15	X16	Y16	Z16	X17	Y17	Z17	X18	Y18	Z18	X19	Y19	Z19	X20	Y20	Z20	X21	Y21	Z21	X22	Y22	Z22	X23	Y23	Z23	X24	Y24	Z24	X25	Y25	Z25	X26	Y26	Z26	X27	Y27	Z27	X28	Y28	Z28	X29	Y29	Z29	X30	Y30	Z30	X31	Y31	Z31	X32	Y32	Z32	X33	Y33	Z33	X34	Y34	Z34	X35	Y35	Z35	X36	Y36	Z36	X37	Y37	Z37	X38	Y38	Z38	X39	Y39	Z39	X40	Y40	Z40	X41	Y41	Z41	X42	Y42	Z42	X43	Y43	Z43	X44	Y44	Z44	X45	Y45	Z45	X46	Y46	Z46	X47	Y47	Z47	X48	Y48	Z48	X49	Y49	Z49	X50	Y50	Z50	X51	Y51	Z51	X52	Y52	Z52	X53	Y53	Z53	X54	Y54	Z54	X55	Y55	Z55	X56	Y56	Z56	

411	3.42500	623.13651	1111.55838	-638.34477	659.14510	1107.98675	-386.49380	466.50723	1141.58353	-531.68575	485.93537	1142.41656	-432.70235	633.21595	877.48638	-326.85590	647.43075	753.34418	-357.87779	561.63891	637.28370	-328.84897	552.63353	556.28206	-329.17805	544.91365	560.98198	-442.06474	546.42795	870.04709	-681.12241	592.29713	763.75351	-657.24641	530.11654	658.87867	-650.57064	518.09282	574.65000	-643.14867	530.48107	569.25441	-529.19723	565.77675	430.34397	-377.47807	507.06912	352.73728	-306.13629	536.46817	233.94349	-362.70443	487.06902	139.60793	-310.54264	499.60359	140.06904	-392.38557	536.56164	432.65631	-588.77593	478.72992	327.90942	-646.22228	516.33613	217.69365	-603.66576	480.28340	141.58016	-565.05906	465.16339	140.40644	-641.29347	418.08367	105.83323	-347.59352	630.87406	57.92053	-392.82261	624.68268	71.14911	-300.39906	404.33349	104.67825	-598.02412	626.81378	53.63977	-576.18379	603.32543	70.50867	-667.47334	514.01961	1559.14825	-660.15648	552.21757	1557.38864	-337.42266	625.08543	1509.96586	-488.56353	504.28097	1588.34080	-493.75346	572.70505	1506.82792	-631.46635	462.13431	1526.03615	-637.84867	612.26282	1515.04240	-363.79163	498.45338	1520.05717	-339.50163	571.97922	1479.42538	-262.75299	524.22420	1427.48569	-252.76118	576.33256	1382.99663	-224.67635	528.96849	1287.15741	-142.44437	525.55427	1239.02098	-200.90290	488.53950	1467.51689	-742.22512	453.79109	1389.13959	-738.87571	509.76038	1398.74629	-787.47668	464.73692	1298.31009	-869.19417	466.94169	1255.69989	-810.08674	615.11018	1311.09084	-144.34537	775.30280	1310.58531	-211.44573	781.99044	1292.46382	-151.13173	550.95925	1326.75526	-872.33688	714.41337	1334.29297	-816.22280	711.74915	1324.09890	-875.93571	606.71871	999.32869	-399.63363	570.03053	1005.94130	-612.90480	
412	3.43333	623.15141	1111.55306	-638.37476	659.18524	1107.98995	-386.49378	466.57838	1141.58807	-531.69797	485.55985	1142.38280	-433.38304	633.22979	877.49673	-326.83889	647.44435	753.33799	-357.87174	561.67460	637.36629	-328.73888	552.64811	556.28344	-329.17534	544.88565	560.99563	-441.59376	546.43892	870.04639	-681.13355	592.31728	763.74890	-657.26694	530.13058	658.88711	-650.58708	518.11066	574.65823	-643.15311	530.52336	569.25596	-529.20901	565.80015	430.34025	-377.46978	507.08119	352.74853	-306.12052	536.48276	233.94052	-362.68517	487.07765	139.61078	-310.54383	499.63979	140.06487	-392.40253	536.58455	432.66209	-588.77669	478.76488	327.90863	-646.23281	516.34725	217.69420	-603.65817	480.30748	141.59122	-565.05187	465.19191	140.41480	-641.29700	418.10254	105.83721	-347.58961	630.88423	57.91117	-392.81789	624.67421	71.12053	-300.40406	404.35835	104.68843	-598.05165	626.84029	53.63387	-576.17696	603.34657	70.50118	-667.46689	514.05075	1559.14902	-660.14681	552.24889	1557.39535	-337.36978	625.11193	1509.95046	-488.54088	504.31545	1588.33944	-493.71610	572.74592	1506.82776	-631.46548	462.17496	1526.05968	-637.83157	612.28972	1515.03381	-363.75664	498.49239	1520.05227	-339.44649	572.00347	1479.41620	-262.73145	524.24165	1427.46994	-252.75038	576.37678	1382.98589	-224.62279	529.01111	1287.14523	-142.41871	525.59569	1239.02469	-200.89315	488.53247	1467.59137	-742.13250	453.82671	1389.18161	-738.84958	509.78259	1398.75968	-787.46590	464.75671	1298.34093	-869.20449	466.98466	1255.73560	-810.09742	615.15279	1311.08221	-144.33005	775.34922	1310.58643	-211.46637	782.01810	1292.47459	-151.13253	550.97914	1326.77607	-872.35671	714.42543	1334.29830	-816.22209	711.76317	1324.10865	-875.96998	606.51010	999.36221	-399.65953	570.25434	1005.87765	-613.02419	
413	3.44167	623.18301	1111.54188	-638.48588	659.23819	1107.98569	-386.49011	466.68602	1141.56455	-531.72511	485.25684	1142.36052	-433.92495	633.23441	877.50106	-326.85062	647.45538	753.33788	-357.88597	561.71013	637.45077	-328.62433	552.65491	556.28371	-329.18375	544.86855	561.00464	-441.22045	546.46773	870.03944	-681.15698	592.35906	763.73938	-657.28840	530.16769	658.90732	-650.64016	518.14680	574.66486	-643.16984	530.51576	569.26375	-529.20162	565.81907	430.33960	-377.48640	507.08084	352.75201	-306.11851	536.49957	233.94057	-362.68672	487.07781	139.60900	-310.55313	499.68792	140.05159	-392.42824	536.61647	432.66218	-588.78225	478.83644	327.90519	-646.25616	516.36885	217.69398	-603.67092	480.32355	141.59525	-565.04891	465.23388	140.41440	-641.31289	418.10180	105.84143	-347.59073	630.90449	57.89935	-392.83081	624.67264	71.10003	-300.41575	404.41374	104.69965	-598.10866	626.87541	53.63069	-576.17417	603.37335	70.50209	-667.47792	514.09300	1559.14295	-660.15052	552.26832	1557.38974	-337.36004	625.14177	1509.93713	-488.54036	504.34501	1588.33938	-493.69879	572.80306	1506.81524	-631.48846	462.22300	1526.06804	-637.81664	612.30493	1515.03142	-363.74711	498.47564	1520.01701	-339.53517	572.01675	1479.40803	-262.72934	524.25389	1427.45828	-252.75325	576.38734	1382.95234	-224.66500	529.04446	1287.13677	-142.40392	525.62779	1239.01483	-200.88775	488.55217	1467.63732	-742.08166	453.89966	1389.20819	-738.85998	509.82440	1398.76103	-787.47314	464.79654	1298.35749	-869.22037	466.98059	1255.74905	-810.08644	615.19167	1311.07371	-144.33063	775.39773	1310.58428	-211.50941	782.03529	1292.47540	-151.15733	551.01436	1326.78094	-872.38896	714.43338	1334.31687	-816.23267	711.79155	1324.11783	-876.00637	606.38751	999.37772	-399.72160	570.43555	1005.82446	-613.15049	
414	3.45000	623.20907	1111.53307	-638.59384	659.29209	1107.97499	-386.48551	466.80290	1141.51742	-531.75715	485.10146	1142.35361	-434.20310	633.23119	877.50191	-326.88675	647.46234	753.34314	-357.92181	561.73329	637.50145	-328.56245	552.65589	556.28316	-329.20086	544.87171	561.00456	-441.05647	546.51076	870.03138	-681.18318	592.41779	763.73031	-657.30578	530.21929	658.92352	-650.69465	518.19776	574.66800	-643.19818	530.46755	569.27337	-529.18042	565.83330	430.34357	-377.52518	507.07312	352.74728	-306.13464	536.52007	233.94544	-362.70637	487.07104	139.60507	-310.56786	499.73719	140.03341	-392.45117	536.65424	432.65730	-588.78264	478.93032	327.89729	-646.28773	516.40139	217.69239	-603.70068	480.32906	141.59265	-565.05056	465.28537	140.40172	-641.33518	418.08362	105.84611	-347.60094	630.93475	57.89026	-392.86318	624.68078	71.09276	-300.42826	404.48004	104.71051	-598.17183	626.90892	53.62652	-576.18727	603.40188	70.51077	-667.50549	514.14186	1559.13684	-660.15923	552.27332	1557.37099	-337.39486	625.17308	1509.93096	-488.55878	504.37136	1588.33929	-493.70059	572.86783	1506.79661	-631.53910	462.27556	1526.05995	-637.81266	612.30641	1515.03395	-363.77349	498.42871	1519.97496	-339.69576	572.02206	1479.40224	-262.74521	524.26444	1427.45190	-252.77133	576.38186	1382.91321	-224.76182	529.07162	1287.13312	-142.40212	525.64902	1238.99055	-200.88735	488.61270	1467.62523	-742.11236	454.00438	1389.22895	-738.89558	509.87837	1398.75325	-787.50052	464.84734	1298.36164	-869.23840	466.93966	1255.74746	-810.06291	615.22967	1311.06557	-144.34771	775.44323	1310.57986	-211.56889	782.04336	1292.46920	-151.20075	551.05968	1326.77719	-872.42662	714.43771	1334.34777	-816.25700	711.83198	1324.13003	-876.04068	606.36156	999.37412	-399.77921	570.54484	1005.79191	-613.23661	
